<?xml version="1.0" encoding="utf-8"?>
<!-- Generator: Adobe Illustrator 21.0.2, SVG Export Plug-In . SVG Version: 6.00 Build 0)  -->
<svg version="1.1" id="Layer_1" xmlns="http://www.w3.org/2000/svg" xmlns:xlink="http://www.w3.org/1999/xlink" x="0px" y="0px"
	 viewBox="0 0 127 48" style="enable-background:new 0 0 127 48;" xml:space="preserve">
<style type="text/css">
	.st0{fill:#FFFFFF;}
	.st1{filter:url(#Adobe_OpacityMaskFilter);}
	.st2{mask:url(#b);fill:#FFFFFF;}
	.st3{fill:#FF5400;}
</style>
<g>
	<path class="st0" d="M23.9,41.1c0.9,0,1.5-0.5,1.5-1.4c0-0.9-0.6-1.4-1.5-1.4h-1.4v2.8H23.9z M22.5,43.2v3.9h-2.4V36.2h4
		c2.2,0,3.7,1.5,3.7,3.5c0,2-1.5,3.5-3.7,3.5C24.2,43.2,22.5,43.2,22.5,43.2z"/>
	<g transform="translate(28.8 35.303)">
		<defs>
			<filter id="Adobe_OpacityMaskFilter" filterUnits="userSpaceOnUse" x="1.5" y="0.7" width="11.1" height="11.3">
				<feColorMatrix  type="matrix" values="1 0 0 0 0  0 1 0 0 0  0 0 1 0 0  0 0 0 1 0"/>
			</filter>
		</defs>
		<mask maskUnits="userSpaceOnUse" x="1.5" y="0.7" width="11.1" height="11.3" id="b">
			<g class="st1">
				<path id="a" class="st0" d="M12.6,12H1.5V0.7h11.1V12z"/>
			</g>
		</mask>
		<path class="st2" d="M7.1,9.6c1.5,0,3.1-1,3.1-3.3c0-2.3-1.6-3.3-3.1-3.3C5.6,3.1,4,4.1,4,6.3C4,8.6,5.6,9.6,7.1,9.6 M7.1,0.7
			c3,0,5.6,2.2,5.6,5.7c0,3.4-2.6,5.6-5.6,5.6c-3,0-5.6-2.2-5.6-5.6C1.5,2.9,4.1,0.7,7.1,0.7"/>
	</g>
	<path class="st0" d="M44.6,47.1h2.4V36.2h-2.4V47.1z M57.7,47.1L53.3,40v7.1h-2.4V36.2h2.9l4,6.6v-6.6h2.4v10.8L57.7,47.1z
		 M68.8,38.5v8.5h-2.4v-8.5h-3.3v-2.3h9v2.3H68.8z M30.8,30.3V19.4h6.8v2.3h-4.4v2.1h4v2.1h-4V28h4.4v2.3L30.8,30.3z M44.9,24.2
		c1,0,1.5-0.5,1.5-1.3c0-0.8-0.5-1.3-1.5-1.3h-1.4v2.6C43.5,24.2,44.9,24.2,44.9,24.2z M44.4,26.2h-0.8v4h-2.4V19.4h4.2
		c2.1,0,3.5,1.5,3.5,3.4c0,1.5-0.8,2.6-2.1,3.1l2.2,4.4h-2.6L44.4,26.2L44.4,26.2z M51.5,24.9c0-3.4,2.5-5.7,5.5-5.7
		c3.2,0,4.6,2.1,5,3.6l-2.2,0.7c-0.2-0.7-0.8-2-2.7-2c-1.4,0-3.1,1-3.1,3.3c0,2,1.5,3.2,3.1,3.2c1.9,0,2.6-1.3,2.8-2l2.3,0.7
		c-0.3,1.5-1.8,3.8-5.1,3.8C53.9,30.5,51.5,28.2,51.5,24.9 M65.2,30.3V19.4H72v2.3h-4.4v2.1h4v2.1h-4V28H72v2.3L65.2,30.3z
		 M79.3,24.3c0.9,0,1.5-0.5,1.5-1.4c0-0.9-0.6-1.4-1.5-1.4H78v2.8L79.3,24.3L79.3,24.3z M77.9,26.4v3.9h-2.4V19.4h4
		c2.2,0,3.7,1.5,3.7,3.5c0,2-1.5,3.5-3.7,3.5C79.6,26.4,77.9,26.4,77.9,26.4z M91.1,21.7v8.5h-2.4v-8.5h-3.3v-2.3h9v2.3L91.1,21.7z
		 M97.4,30.3h2.4V19.4h-2.4V30.3z M108.6,28.1c1.5,0,3.1-1,3.1-3.3c0-2.3-1.6-3.3-3.1-3.3c-1.5,0-3.1,1-3.1,3.3
		C105.5,27.1,107.1,28.1,108.6,28.1 M108.6,19.2c3,0,5.6,2.2,5.6,5.7c0,3.4-2.6,5.6-5.6,5.6c-3,0-5.6-2.2-5.6-5.6
		C103,21.4,105.6,19.2,108.6,19.2 M124.1,30.3l-4.4-7.1v7.1h-2.4V19.4h2.9l4,6.6v-6.6h2.4v10.8L124.1,30.3z M23.9,24.3
		c0.9,0,1.5-0.5,1.5-1.4c0-0.9-0.6-1.4-1.5-1.4h-1.4v2.8L23.9,24.3L23.9,24.3z M22.5,26.4v3.9h-2.4V19.4h4c2.2,0,3.7,1.5,3.7,3.5
		c0,2-1.5,3.5-3.7,3.5C24.2,26.4,22.5,26.4,22.5,26.4z"/>
	<path class="st3" d="M40.1,19.4h0.2H40.1z M18.3,9.1c0,5-4.1,9.1-9.1,9.1c-5,0-9.1-4.1-9.1-9.1c0,0,0,0,0,0C0,4.1,4.1,0,9.1,0
		S18.3,4.1,18.3,9.1C18.3,9.1,18.3,9.1,18.3,9.1 M19.2,1.3V0.5l-0.4,0.8h-0.2l-0.4-0.8v0.8H18V0h0.4l0.4,0.9L19.1,0h0.3v1.3H19.2z
		 M17.4,0.2v1.1h-0.3V0.2h-0.4V0h1.1v0.2H17.4z"/>
</g>
</svg>
